#!OML:ASF X:\für Bonn\!DataBase\2005_08_10_Bjorn_Final\c3d\bjorn.ASF
:FULLY-SPECIFIED
:DEGREES
32
root 2.97157 18.7604 3.02238 -152.903 -50.2538 165.171
lowerback 16.2391 -2.60522 -0.906482
upperback 14.3378 -5.32892 -2.03145
thorax 6.23994 -3.35614 -1.17312
lowerneck -7.65266 -10.4427 -9.85198
upperneck -10.9593 -13.1295 20.5366
head 0.224965 -6.99589 7.33048
rclavicle 7.90107e-014 -4.2043e-014
rhumerus -39.6235 -0.911891 -93.1857
rradius 32.7761
rwrist 10.0163
rhand -14.519 21.4566
rfingers 7.12502
rthumb 11.6286 -8.20076
lclavicle 7.90107e-014 -4.2043e-014
lhumerus 13.4204 -48.8236 71.1205
lradius 77.8444
lwrist -18.6521
lhand -46.877 -26.236
lfingers 7.12502
lthumb -19.589 2.79712
rfemur -44.6323 -10.3342 6.2628
rtibia 48.6329
rfoot -17.8085 -3.61892
rtoes -10.4557
lfemur -17.6897 3.00487 -12.6333
ltibia 34.9901
lfoot -8.31531 -2.78786
ltoes -33.0765
33
root 3.00525 18.7333 2.95607 -152.711 -50.7952 164.638
lowerback 16.9104 -2.87907 -0.710413
upperback 14.452 -5.71524 -2.06013
thorax 5.9981 -3.54929 -1.22271
lowerneck -7.85421 -10.4555 -9.9489
upperneck -11.4153 -13.1125 20.7651
head 0.151528 -7.02232 7.42485
rclavicle -4.86029e-014 6.09399e-015
rhumerus -39.3753 -1.15609 -92.5127
rradius 31.7849
rwrist 11.2581
rhand -14.3516 21.0947
rfingers 7.12502
rthumb 11.7901 -8.55344
lclavicle -4.86029e-014 6.09399e-015
lhumerus 13.4778 -47.9356 71.2323
lradius 78.5192
lwrist -18.9171
lhand -46.2575 -27.3369
lfingers 7.12502
lthumb -18.9933 1.75574
rfemur -44.1016 -9.84291 5.98526
rtibia 48.8573
rfoot -18.4035 -4.3386
rtoes -12.3692
lfemur -17.1078 2.15475 -12.5553
ltibia 35.4391
lfoot -8.29585 -1.92235
ltoes -34.8552
34
root 3.03814 18.7004 2.89046 -152.677 -51.3858 164.234
lowerback 17.5496 -3.18135 -0.460377
upperback 14.5842 -6.13233 -2.0275
thorax 5.79627 -3.75776 -1.2316
lowerneck -8.22164 -10.4523 -10.0846
upperneck -11.7379 -13.078 20.9019
head 0.134422 -7.02178 7.48526
rclavicle 9.93923e-014 -3.66012e-014
rhumerus -39.0269 -1.73107 -91.5621
rradius 30.6489
rwrist 12.7802
rhand -14.101 20.5485
rfingers 7.12502
rthumb 12.0317 -9.08566
lclavicle 9.93923e-014 -3.66012e-014
lhumerus 13.4063 -46.7368 71.5405
lradius 79.0865
lwrist -19.1932
lhand -45.5042 -28.4157
lfingers 7.12502
lthumb -18.2687 0.746458
rfemur -43.5816 -9.46292 5.86627
rtibia 49.1988
rfoot -19.004 -4.93501
rtoes -14.2125
lfemur -16.4226 0.375453 -12.4194
ltibia 36.0934
lfoot -8.49256 -0.329825
ltoes -37.0574
35
root 3.06989 18.6608 2.82376 -152.857 -52.0364 164.047
lowerback 18.113 -3.49549 -0.0644277
upperback 14.7333 -6.54226 -1.97298
thorax 5.6423 -3.95194 -1.30017
lowerneck -8.59507 -10.4461 -10.2225
upperneck -12.0243 -13.0417 21.0239
head 0.126978 -7.01718 7.54037
rclavicle -4.60435e-014 -9.9939e-014
rhumerus -38.6437 -2.71229 -90.4063
rradius 29.4441
rwrist 14.5486
rhand -13.782 19.9018
rfingers 7.12502
rthumb 12.3393 -9.71407
lclavicle -4.60435e-014 -9.9939e-014
lhumerus 13.2351 -45.3499 71.9512
lradius 79.4963
lwrist -19.4716
lhand -44.666 -29.32
lfingers 7.12502
lthumb -17.4623 -0.0843297
rfemur -43.1114 -9.29316 6.00115
rtibia 49.6743
rfoot -19.5611 -5.34417
rtoes -16.1834
lfemur -15.8734 -1.37034 -12.1252
ltibia 37.1204
lfoot -8.49581 1.00226
ltoes -38.8332
36
root 3.0983 18.6278 2.75631 -153.156 -52.6942 164.01
lowerback 18.5299 -3.80476 0.477066
upperback 14.9069 -6.9212 -1.93629
thorax 5.57355 -4.11679 -1.48193
lowerneck -9.04617 -10.4844 -10.383
upperneck -12.2348 -13.0657 21.1964
head 0.169208 -7.03529 7.60149
rclavicle -4.26393e-014 1.86361e-014
rhumerus -38.1949 -4.22263 -89.0341
rradius 28.1381
rwrist 16.4992
rhand -13.4287 19.334
rfingers 7.12502
rthumb 12.6799 -10.2611
lclavicle -4.26393e-014 1.86361e-014
lhumerus 13.098 -43.849 72.3774
lradius 79.6383
lwrist -19.7536
lhand -43.859 -29.6982
lfingers 7.12502
lthumb -16.6855 -0.395278
rfemur -42.6733 -9.38932 6.33103
rtibia 50.2003
rfoot -20.0871 -5.43588
rtoes -17.8744
lfemur -15.5557 -3.05473 -11.7652
ltibia 38.6023
lfoot -8.00334 2.18988
ltoes -40.6837
37
root 3.12382 18.5755 2.69116 -153.366 -53.2727 164.003
lowerback 18.6273 -4.09456 1.0073
upperback 15.0892 -7.26604 -1.94319
thorax 5.67003 -4.25679 -1.73763
lowerneck -9.41302 -10.5074 -10.5496
upperneck -12.4863 -13.0671 21.4217
head 0.188477 -7.0493 7.68855
rclavicle 1.01032e-013 -1.37658e-013
rhumerus -37.7218 -6.13568 -87.4941
rradius 26.7771
rwrist 18.6077
rhand -13.1266 18.9273
rfingers 7.12502
rthumb 12.9712 -10.6495
lclavicle 1.01032e-013 -1.37658e-013
lhumerus 13.0102 -42.1876 72.8367
lradius 79.4335
lwrist -19.9564
lhand -43.1672 -29.3141
lfingers 7.12502
lthumb -16.0194 0.0435903
rfemur -42.5106 -9.73014 6.72289
rtibia 50.8157
rfoot -20.5288 -5.27027
rtoes -19.2233
lfemur -15.6504 -4.45437 -11.4463
ltibia 40.6867
lfoot -7.0321 2.58223
ltoes -42.6567
38
root 3.14547 18.5219 2.62382 -153.72 -53.7779 164.05
lowerback 18.6512 -4.34651 1.56543
upperback 15.3074 -7.56435 -2.03284
thorax 5.82875 -4.3669 -2.11246
lowerneck -9.61588 -10.571 -10.8385
upperneck -12.8082 -13.1093 21.8837
head 0.200602 -7.09587 7.87531
rclavicle -3.29983e-014 -6.45553e-014
rhumerus -37.3384 -8.4238 -85.8484
rradius 25.4388
rwrist 20.7225
rhand -12.9982 18.8453
rfingers 7.12502
rthumb 13.0949 -10.7236
lclavicle -3.29983e-014 -6.45553e-014
lhumerus 12.9526 -40.4648 73.2934
lradius 78.7856
lwrist -19.8691
lhand -42.6809 -28.3343
lfingers 7.12502
lthumb -15.551 1.06047
rfemur -42.2785 -10.2262 7.15838
rtibia 51.4257
rfoot -20.9267 -4.85521
rtoes -20.0305
lfemur -15.9186 -5.62796 -11.169
ltibia 43.3666
lfoot -5.64292 2.32724
ltoes -43.2273
39
root 3.16419 18.4771 2.5529 -154.338 -54.2529 164.302
lowerback 18.5998 -4.5659 2.16094
upperback 15.5839 -7.83029 -2.15131
thorax 6.0833 -4.45624 -2.55704
lowerneck -9.6672 -10.5893 -11.0845
upperneck -13.2082 -13.0924 22.3633
head 0.156772 -7.12709 8.07946
rclavicle 3.04141e-014 -2.13694e-014
rhumerus -36.9976 -10.8467 -84.1776
rradius 24.1624
rwrist 22.6615
rhand -13.0836 18.7817
rfingers 7.12502
rthumb 13.0126 -10.7925
lclavicle 3.04141e-014 -2.13694e-014
lhumerus 12.9415 -38.5228 73.8246
lradius 77.6057
lwrist -19.3801
lhand -42.1765 -27.1646
lfingers 7.12502
lthumb -15.0652 2.26718
rfemur -41.9501 -10.7794 7.72154
rtibia 52.0233
rfoot -21.3442 -4.22946
rtoes -20.245
lfemur -16.3646 -6.66593 -10.807
ltibia 46.636
lfoot -4.42845 1.60432
ltoes -42.0851
40
root 3.18021 18.4357 2.47921 -155.234 -54.6605 164.769
lowerback 18.4722 -4.72916 2.65671
upperback 15.9406 -8.06302 -2.22149
thorax 6.48896 -4.54049 -2.92085
lowerneck -9.63272 -10.5365 -11.2697
upperneck -13.6768 -12.9837 22.7477
head 0.0510671 -7.12204 8.26367
rclavicle 1.16488e-013 -2.18663e-014
rhumerus -36.6116 -13.6837 -82.1431
rradius 22.8633
rwrist 24.7369
rhand -13.156 18.8937
rfingers 7.12502
rthumb 12.9428 -10.6849
lclavicle 1.16488e-013 -2.18663e-014
lhumerus 12.8699 -36.1333 74.5945
lradius 75.9865
lwrist -18.9699
lhand -41.3455 -25.5638
lfingers 7.12502
lthumb -14.2646 3.92629
rfemur -41.5219 -11.3711 8.39585
rtibia 52.5611
rfoot -21.7069 -3.46968
rtoes -20.1244
lfemur -16.8679 -8.12209 -10.4562
ltibia 50.3538
lfoot -3.66627 1.30102
ltoes -40.2757
41
root 3.19551 18.3908 2.40573 -156.327 -54.9854 165.408
lowerback 18.3666 -4.8356 3.08658
upperback 16.2878 -8.2351 -2.27115
thorax 6.88751 -4.59947 -3.23473
lowerneck -9.47932 -10.458 -11.44
upperneck -14.1356 -12.8439 23.1052
head -0.0796284 -7.1046 8.44791
rclavicle -7.03698e-014 3.13086e-014
rhumerus -36.3218 -16.8333 -79.8614
rradius 21.6027
rwrist 26.8733
rhand -13.2776 19.0945
rfingers 7.12502
rthumb 12.8256 -10.4914
lclavicle -7.03698e-014 3.13086e-014
lhumerus 12.7089 -33.4896 75.5018
lradius 73.9857
lwrist -18.8271
lhand -40.2356 -23.5698
lfingers 7.12502
lthumb -13.1949 5.99267
rfemur -41.0733 -11.9714 9.13865
rtibia 53.0592
rfoot -21.9958 -2.68198
rtoes -19.9441
lfemur -17.4092 -9.59068 -10.1317
ltibia 54.4043
lfoot -3.119 0.953765
ltoes -37.9653
42
root 3.20977 18.3508 2.33116 -157.571 -55.2059 166.164
lowerback 18.3332 -4.87185 3.42528
upperback 16.5878 -8.3204 -2.30886
thorax 7.21319 -4.62283 -3.4867
lowerneck -9.26836 -10.381 -11.5115
upperneck -14.4666 -12.7227 23.3287
head -0.200667 -7.0867 8.57022
rclavicle 7.95139e-014 6.95746e-015
rhumerus -36.1493 -20.1069 -77.4421
rradius 20.3615
rwrist 28.9003
rhand -13.3966 19.3583
rfingers 7.12502
rthumb 12.7109 -10.2349
lclavicle 7.95139e-014 6.95746e-015
lhumerus 12.372 -30.6978 76.4988
lradius 71.7521
lwrist -18.2295
lhand -38.7076 -21.9579
lfingers 7.12502
lthumb -11.7217 7.69415
rfemur -40.5628 -12.569 9.92274
rtibia 53.4944
rfoot -22.2268 -1.92834
rtoes -20.1271
lfemur -17.9582 -10.6748 -9.8591
ltibia 58.6828
lfoot -2.42182 0.0683369
ltoes -35.3318
